<svg width="293" height="40" viewBox="0 0 293 40" fill="none" xmlns="http://www.w3.org/2000/svg">
<path d="M99.3545 19.6773C99.3545 10.6115 92.0507 3.26306 83.0392 3.26306C74.0277 3.26306 66.7239 10.6115 66.7239 19.6773C66.7239 27.872 72.6887 34.6624 80.4896 35.8937V24.4229H76.3477V19.6762H80.4896V16.0608C80.4896 11.9471 82.925 9.67388 86.6525 9.67388C88.4363 9.67388 90.3049 9.99475 90.3049 9.99475V14.0344H88.2459C86.2196 14.0344 85.5887 15.3005 85.5887 16.5992V19.6773H90.1135L89.3902 24.4218H85.5887V35.8937C93.3896 34.6624 99.3545 27.872 99.3545 19.6773Z" fill="white"/>
<path fill-rule="evenodd" clip-rule="evenodd" d="M146.5 3.66553C137.486 3.66553 130.185 10.9666 130.185 19.9808C130.185 27.2003 134.855 33.2982 141.34 35.46C142.156 35.6027 142.462 35.1133 142.462 34.685C142.462 34.2975 142.442 33.0127 142.442 31.6463C138.342 32.4008 137.282 30.6469 136.956 29.7292C136.772 29.2601 135.977 27.8122 135.283 27.4247C134.712 27.1188 133.896 26.3642 135.263 26.3438C136.548 26.3234 137.465 27.5266 137.771 28.0161C139.24 30.4838 141.585 29.7904 142.523 29.3621C142.666 28.3016 143.094 27.5878 143.563 27.1799C139.933 26.7721 136.14 25.3649 136.14 19.1243C136.14 17.35 136.772 15.8816 137.812 14.7395C137.649 14.3316 137.078 12.6593 137.975 10.416C137.975 10.416 139.342 9.9877 142.462 12.0883C143.767 11.7212 145.154 11.5377 146.541 11.5377C147.928 11.5377 149.314 11.7212 150.62 12.0883C153.74 9.96731 155.106 10.416 155.106 10.416C156.004 12.6593 155.433 14.3316 155.269 14.7395C156.31 15.8816 156.942 17.3296 156.942 19.1243C156.942 25.3853 153.128 26.7721 149.498 27.1799C150.089 27.6898 150.599 28.6687 150.599 30.1983C150.599 32.3804 150.579 34.1343 150.579 34.685C150.579 35.1133 150.885 35.6231 151.7 35.46C154.939 34.3665 157.754 32.2849 159.748 29.5082C161.742 26.7314 162.814 23.3993 162.815 19.9808C162.815 10.9666 155.514 3.66553 146.5 3.66553Z" fill="white"/>
<path fill-rule="evenodd" clip-rule="evenodd" d="M209.961 4.89453C205.973 4.89453 205.473 4.91117 203.907 4.98263C202.344 5.05409 201.276 5.30274 200.342 5.66592C199.363 6.03399 198.475 6.61155 197.741 7.35945C196.994 8.09279 196.416 8.98004 196.047 9.95945C195.686 10.8933 195.437 11.9623 195.365 13.5256C195.295 15.0909 195.277 15.5892 195.277 19.5783C195.277 23.5674 195.294 24.0657 195.365 25.6319C195.437 27.1953 195.685 28.2633 196.048 29.1971C196.417 30.1761 196.994 31.0639 197.742 31.7981C198.475 32.5448 199.363 33.1227 200.342 33.4916C201.276 33.8538 202.344 34.1025 203.907 34.174C205.473 34.2454 205.973 34.2621 209.961 34.2621C213.949 34.2621 214.448 34.2454 216.014 34.174C217.578 34.1025 218.646 33.8538 219.58 33.4907C220.559 33.1226 221.446 32.545 222.181 31.7971C222.927 31.0638 223.505 30.1765 223.874 29.1971C224.236 28.2633 224.485 27.1953 224.556 25.6319C224.628 24.0657 224.645 23.5664 224.645 19.5783C224.645 15.5902 224.628 15.0909 224.556 13.5247C224.485 11.9613 224.236 10.8933 223.873 9.95945C223.505 8.97962 222.927 8.09199 222.18 7.35847C221.446 6.61177 220.559 6.03385 219.58 5.66494C218.646 5.30372 217.577 5.05409 216.013 4.98263C214.448 4.91215 213.95 4.89453 209.961 4.89453ZM209.961 7.54055C213.881 7.54055 214.346 7.55523 215.895 7.62571C217.326 7.6913 218.103 7.92918 218.621 8.13181C219.307 8.3971 219.796 8.71623 220.31 9.22918C220.824 9.74311 221.142 10.2326 221.407 10.9178C221.609 11.4357 221.848 12.2129 221.913 13.6441C221.984 15.1927 221.999 15.6577 221.999 19.5783C221.999 23.4989 221.984 23.9638 221.913 25.5125C221.848 26.9437 221.61 27.7209 221.407 28.2388C221.172 28.8766 220.797 29.4536 220.31 29.9274C219.836 30.4149 219.259 30.7899 218.621 31.0248C218.103 31.2264 217.326 31.4653 215.895 31.5309C214.346 31.6014 213.882 31.616 209.961 31.616C206.039 31.616 205.575 31.6014 204.027 31.5309C202.595 31.4653 201.818 31.2274 201.3 31.0248C200.663 30.7898 200.086 30.4148 199.612 29.9274C199.124 29.4536 198.749 28.8766 198.514 28.2388C198.313 27.7209 198.074 26.9437 198.008 25.5125C197.938 23.9638 197.923 23.4989 197.923 19.5783C197.923 15.6577 197.938 15.1927 198.008 13.6441C198.074 12.2129 198.312 11.4357 198.514 10.9178C198.78 10.2326 199.099 9.74311 199.612 9.22918C200.085 8.74172 200.662 8.36673 201.3 8.13181C201.818 7.93015 202.595 7.6913 204.027 7.62571C205.575 7.55523 206.04 7.54055 209.961 7.54055Z" fill="white"/>
<path fill-rule="evenodd" clip-rule="evenodd" d="M209.961 24.4778C209.317 24.4778 208.68 24.3511 208.086 24.1049C207.491 23.8586 206.951 23.4977 206.496 23.0428C206.041 22.5878 205.681 22.0477 205.434 21.4533C205.188 20.8588 205.061 20.2217 205.061 19.5783C205.061 18.9349 205.188 18.2978 205.434 17.7034C205.681 17.1089 206.041 16.5688 206.496 16.1139C206.951 15.6589 207.491 15.298 208.086 15.0518C208.68 14.8056 209.317 14.6788 209.961 14.6788C211.26 14.6788 212.506 15.195 213.425 16.1139C214.344 17.0327 214.86 18.2789 214.86 19.5783C214.86 20.8777 214.344 22.1239 213.425 23.0428C212.506 23.9616 211.26 24.4778 209.961 24.4778ZM209.961 12.0309C207.959 12.0309 206.039 12.826 204.624 14.2415C203.209 15.6569 202.413 17.5766 202.413 19.5783C202.413 21.58 203.209 23.4998 204.624 24.9152C206.039 26.3306 207.959 27.1258 209.961 27.1258C211.963 27.1258 213.882 26.3306 215.298 24.9152C216.713 23.4998 217.508 21.58 217.508 19.5783C217.508 17.5766 216.713 15.6569 215.298 14.2415C213.882 12.826 211.963 12.0309 209.961 12.0309ZM219.704 11.8938C219.704 12.367 219.516 12.8208 219.181 13.1554C218.847 13.4899 218.393 13.6779 217.92 13.6779C217.447 13.6779 216.993 13.4899 216.658 13.1554C216.324 12.8208 216.136 12.367 216.136 11.8938C216.136 11.4207 216.324 10.9669 216.658 10.6323C216.993 10.2977 217.447 10.1097 217.92 10.1097C218.393 10.1097 218.847 10.2977 219.181 10.6323C219.516 10.9669 219.704 11.4207 219.704 11.8938Z" fill="white"/>
<path d="M34.2621 7.05391V32.1027C34.2621 32.6754 34.0346 33.2246 33.6297 33.6296C33.2247 34.0346 32.6754 34.2621 32.1027 34.2621H7.05397C6.48127 34.2621 5.93202 34.0346 5.52706 33.6296C5.1221 33.2246 4.89459 32.6754 4.89459 32.1027V7.05391C4.89459 6.48121 5.1221 5.93196 5.52706 5.527C5.93202 5.12204 6.48127 4.89453 7.05397 4.89453H32.1027C32.6754 4.89453 33.2247 5.12204 33.6297 5.527C34.0346 5.93196 34.2621 6.48121 34.2621 7.05391ZM13.5321 16.1233H9.21335V29.9433H13.5321V16.1233ZM13.9208 11.3727C13.9231 11.046 13.861 10.7221 13.7381 10.4194C13.6151 10.1167 13.4338 9.84119 13.2044 9.60858C12.975 9.37598 12.7021 9.19084 12.4011 9.06374C12.1002 8.93663 11.7771 8.87005 11.4505 8.86778H11.3727C10.7084 8.86778 10.0713 9.13169 9.60151 9.60145C9.13175 10.0712 8.86785 10.7083 8.86785 11.3727C8.86785 12.037 9.13175 12.6741 9.60151 13.1439C10.0713 13.6136 10.7084 13.8775 11.3727 13.8775C11.6994 13.8856 12.0245 13.8292 12.3294 13.7115C12.6343 13.5939 12.913 13.4173 13.1496 13.1919C13.3863 12.9665 13.5762 12.6967 13.7085 12.3979C13.8408 12.0991 13.9129 11.7771 13.9208 11.4504V11.3727ZM29.9434 21.5476C29.9434 17.393 27.3003 15.7778 24.6745 15.7778C23.8147 15.7347 22.9587 15.9179 22.1919 16.3089C21.425 16.6999 20.774 17.2852 20.3039 18.0063H20.183V16.1233H16.1234V29.9433H20.4421V22.5928C20.3797 21.84 20.6168 21.0929 21.102 20.5139C21.5872 19.9349 22.2812 19.5708 23.0334 19.5006H23.1975C24.5708 19.5006 25.5901 20.3643 25.5901 22.541V29.9433H29.9088L29.9434 21.5476Z" fill="white"/>
<path d="M286.396 12.9219C286.416 13.2095 286.416 13.4972 286.416 13.7875C286.416 22.6335 279.682 32.8356 267.368 32.8356V32.8303C263.731 32.8356 260.169 31.7937 257.106 29.8291C257.635 29.8927 258.167 29.9245 258.7 29.9258C261.714 29.9285 264.643 28.917 267.014 27.0545C264.15 27.0001 261.637 25.1323 260.76 22.4055C261.763 22.599 262.797 22.5593 263.782 22.2902C260.659 21.6591 258.412 18.9151 258.412 15.7282C258.412 15.6991 258.412 15.6712 258.412 15.6434C259.343 16.1617 260.385 16.4494 261.451 16.4812C258.509 14.5153 257.602 10.602 259.379 7.54243C262.777 11.7248 267.792 14.2674 273.176 14.5365C272.636 12.2113 273.373 9.7748 275.113 8.14029C277.809 5.60567 282.05 5.73558 284.584 8.43061C286.084 8.13499 287.521 7.58485 288.836 6.80537C288.336 8.35504 287.29 9.6714 285.893 10.5079C287.22 10.3515 288.516 9.99618 289.737 9.454C288.838 10.8008 287.706 11.974 286.396 12.9219Z" fill="white"/>
</svg>
