<svg width="158" height="157" viewBox="0 0 158 157" fill="none" xmlns="http://www.w3.org/2000/svg">
<path fill-rule="evenodd" clip-rule="evenodd" d="M79 157C122.354 157 157.5 121.854 157.5 78.5C157.5 35.1456 122.354 0 79 0C35.6456 0 0.5 35.1456 0.5 78.5V157H79Z" fill="#B377FF" fill-opacity="0.1"/>
<path fill-rule="evenodd" clip-rule="evenodd" d="M79 152C119.593 152 152.5 119.093 152.5 78.5C152.5 37.9071 119.593 5 79 5C38.4071 5 5.5 37.9071 5.5 78.5V152H79Z" fill="#B377FF"/>
<path d="M65.4 89.5C65.4 87.4333 65.6 85.5 66 83.7C66.4 81.9 67.1667 80.2 68.3 78.6C69.5 77 71.2333 75.5667 73.5 74.3C74.3667 73.7667 75.5 73.1667 76.9 72.5C78.3667 71.7667 79.8 70.9 81.2 69.9C82.6 68.9 83.7667 67.7333 84.7 66.4C85.7 65.0667 86.2 63.6 86.2 62C86.2 60.5333 85.8 59.3 85 58.3C84.2667 57.2333 83.3 56.4333 82.1 55.9C80.9667 55.3 79.7 55 78.3 55C76.5667 55 75.0333 55.4 73.7 56.2C72.4333 57 71.3667 57.9667 70.5 59.1C69.6333 60.1667 68.8667 61.2 68.2 62.2L57.9 55C59.0333 52.2667 60.6333 49.9667 62.7 48.1C64.8333 46.1667 67.2667 44.7 70 43.7C72.8 42.6333 75.7667 42.1 78.9 42.1C81.3667 42.1 83.8667 42.4667 86.4 43.2C88.9333 43.9333 91.2333 45.1 93.3 46.7C95.3667 48.3 97 50.4 98.2 53C99.4667 55.5333 100.1 58.5667 100.1 62.1C100.1 64.0333 99.9 65.8 99.5 67.4C99.1667 68.9333 98.6 70.3667 97.8 71.7C97 72.9667 96 74.1667 94.8 75.3C93.6 76.3667 92.2667 77.4 90.8 78.4C88.9333 79.6 87.0667 80.7 85.2 81.7C83.3333 82.6333 81.7667 83.7 80.5 84.9C79.2333 86.1 78.6 87.6333 78.6 89.5H65.4ZM65.7 114V99H78.8V114H65.7Z" fill="white"/>
</svg>
