<svg width="72" height="70" viewBox="0 0 72 70" fill="none" xmlns="http://www.w3.org/2000/svg">
<path fill-rule="evenodd" clip-rule="evenodd" d="M35.7332 6.55273C19.3749 6.55273 6.12549 19.6048 6.12549 35.7194C6.12549 48.6256 14.6007 59.5267 26.3698 63.3913C27.8501 63.6465 28.4053 62.7715 28.4053 62.0059C28.4053 61.3131 28.3683 59.0163 28.3683 56.5736C20.9293 57.9225 19.0048 54.7871 18.4127 53.1465C18.0796 52.3079 16.6362 49.7194 15.3779 49.0267C14.3416 48.4798 12.8612 47.1309 15.3409 47.0944C17.6725 47.0579 19.3379 49.209 19.8931 50.084C22.5578 54.4954 26.8139 53.2559 28.5163 52.4902C28.7754 50.5944 29.5526 49.3184 30.4038 48.5892C23.8161 47.86 16.9323 45.3444 16.9323 34.1882C16.9323 31.0163 18.0796 28.3913 19.9671 26.3496C19.671 25.6204 18.6347 22.6309 20.2632 18.6204C20.2632 18.6204 22.7428 17.8548 28.4053 21.61C30.7739 20.9538 33.2906 20.6257 35.8072 20.6257C38.3239 20.6257 40.8405 20.9538 43.2092 21.61C48.8716 17.8184 51.3513 18.6204 51.3513 18.6204C52.9797 22.6309 51.9434 25.6204 51.6474 26.3496C53.5348 28.3913 54.6821 30.9798 54.6821 34.1882C54.6821 45.3809 47.7613 47.86 41.1736 48.5892C42.2469 49.5006 43.1721 51.2507 43.1721 53.985C43.1721 57.8861 43.1351 61.0215 43.1351 62.0059C43.1351 62.7715 43.6903 63.6829 45.1707 63.3913C51.0483 61.4366 56.1558 57.7154 59.7741 52.7514C63.3924 47.7874 65.3393 41.8306 65.3409 35.7194C65.3409 19.6048 52.0915 6.55273 35.7332 6.55273Z" fill="#B377FF"/>
</svg>
