<svg width="72" height="70" viewBox="0 0 72 70" fill="none" xmlns="http://www.w3.org/2000/svg">
<path fill-rule="evenodd" clip-rule="evenodd" d="M35.542 8.75C28.3047 8.75 27.3987 8.77975 24.5563 8.9075C21.7193 9.03525 19.7812 9.47975 18.0864 10.129C16.31 10.787 14.6987 11.8195 13.3664 13.1565C12.0113 14.4675 10.9626 16.0536 10.2931 17.8045C9.63758 19.474 9.18458 21.385 9.0549 24.1798C8.927 26.978 8.89502 27.8687 8.89502 35C8.89502 42.1312 8.92522 43.022 9.0549 45.822C9.18458 48.6167 9.6358 50.526 10.2949 52.1955C10.9628 53.9455 12.0109 55.5327 13.3682 56.8452C14.699 58.1801 16.3091 59.2132 18.0864 59.8727C19.7812 60.5202 21.7193 60.9647 24.5563 61.0925C27.3987 61.2202 28.3047 61.25 35.542 61.25C42.7793 61.25 43.6853 61.2202 46.5276 61.0925C49.3646 60.9647 51.3027 60.5202 52.9975 59.871C54.7739 59.213 56.3852 58.1805 57.7175 56.8435C59.0726 55.5325 60.1214 53.9464 60.7908 52.1955C61.4481 50.526 61.8993 48.6167 62.029 45.822C62.1587 43.022 62.1889 42.1295 62.1889 35C62.1889 27.8705 62.1587 26.978 62.029 24.178C61.8993 21.3833 61.4481 19.474 60.7891 17.8045C60.1201 16.0529 59.0713 14.4661 57.7158 13.1547C56.385 11.8199 54.7748 10.7868 52.9975 10.1272C51.3027 9.4815 49.3628 9.03525 46.5258 8.9075C43.6853 8.7815 42.781 8.75 35.542 8.75ZM35.542 13.4803C42.6567 13.4803 43.5005 13.5065 46.3109 13.6325C48.9081 13.7498 50.3186 14.175 51.2583 14.5373C52.5019 15.0115 53.3901 15.582 54.3227 16.499C55.2554 17.4178 55.8327 18.2927 56.3141 19.5177C56.6801 20.4435 57.1135 21.833 57.2326 24.3915C57.3605 27.16 57.3871 27.9912 57.3871 35C57.3871 42.0088 57.3605 42.84 57.2326 45.6085C57.1135 48.167 56.6819 49.5565 56.3141 50.4823C55.8877 51.6225 55.2072 52.654 54.3227 53.501C53.4631 54.3725 52.4159 55.0428 51.2583 55.4628C50.3186 55.8232 48.9081 56.2502 46.3109 56.3675C43.5005 56.4935 42.6585 56.5198 35.542 56.5198C28.4255 56.5198 27.5834 56.4935 24.773 56.3675C22.1759 56.2502 20.7653 55.825 19.8256 55.4628C18.6681 55.0426 17.621 54.3723 16.7612 53.501C15.8768 52.6539 15.1964 51.6224 14.7698 50.4823C14.4038 49.5565 13.9704 48.167 13.8514 45.6085C13.7234 42.84 13.6968 42.0088 13.6968 35C13.6968 27.9912 13.7234 27.16 13.8514 24.3915C13.9704 21.833 14.4021 20.4435 14.7698 19.5177C15.2512 18.2927 15.8303 17.4178 16.7612 16.499C17.6209 15.6276 18.6681 14.9572 19.8256 14.5373C20.7653 14.1767 22.1759 13.7498 24.773 13.6325C27.5834 13.5065 28.4272 13.4803 35.542 13.4803Z" fill="#B377FF"/>
<path fill-rule="evenodd" clip-rule="evenodd" d="M35.5417 43.7589C34.3741 43.7589 33.218 43.5323 32.1392 43.0922C31.0605 42.652 30.0803 42.0068 29.2547 41.1935C28.4291 40.3802 27.7742 39.4146 27.3273 38.3519C26.8805 37.2893 26.6505 36.1503 26.6505 35.0001C26.6505 33.8499 26.8805 32.7109 27.3273 31.6483C27.7742 30.5856 28.4291 29.6201 29.2547 28.8067C30.0803 27.9934 31.0605 27.3483 32.1392 26.9081C33.218 26.4679 34.3741 26.2414 35.5417 26.2414C37.8998 26.2414 40.1613 27.1642 41.8288 28.8067C43.4962 30.4493 44.4329 32.6772 44.4329 35.0001C44.4329 37.3231 43.4962 39.5509 41.8288 41.1935C40.1613 42.8361 37.8998 43.7589 35.5417 43.7589ZM35.5417 21.5076C31.9092 21.5076 28.4254 22.9291 25.8568 25.4595C23.2882 27.9898 21.8452 31.4217 21.8452 35.0001C21.8452 38.5786 23.2882 42.0104 25.8568 44.5408C28.4254 47.0711 31.9092 48.4926 35.5417 48.4926C39.1743 48.4926 42.658 47.0711 45.2266 44.5408C47.7952 42.0104 49.2383 38.5786 49.2383 35.0001C49.2383 31.4217 47.7952 27.9898 45.2266 25.4595C42.658 22.9291 39.1743 21.5076 35.5417 21.5076ZM53.2229 21.2626C53.2229 22.1085 52.8818 22.9197 52.2746 23.5178C51.6674 24.116 50.8439 24.452 49.9853 24.452C49.1266 24.452 48.3031 24.116 47.6959 23.5178C47.0888 22.9197 46.7477 22.1085 46.7477 21.2626C46.7477 20.4167 47.0888 19.6055 47.6959 19.0074C48.3031 18.4093 49.1266 18.0732 49.9853 18.0732C50.8439 18.0732 51.6674 18.4093 52.2746 19.0074C52.8818 19.6055 53.2229 20.4167 53.2229 21.2626Z" fill="#B377FF"/>
</svg>
