<svg width="72" height="70" viewBox="0 0 72 70" fill="none" xmlns="http://www.w3.org/2000/svg">
<path d="M62.7177 12.6103V57.3897C62.7177 58.4135 62.3049 59.3954 61.57 60.1194C60.8351 60.8433 59.8383 61.25 58.799 61.25H13.3425C12.3032 61.25 11.3065 60.8433 10.5716 60.1194C9.83669 59.3954 9.42383 58.4135 9.42383 57.3897V12.6103C9.42383 11.5865 9.83669 10.6046 10.5716 9.88065C11.3065 9.15671 12.3032 8.75 13.3425 8.75H58.799C59.8383 8.75 60.8351 9.15671 61.57 9.88065C62.3049 10.6046 62.7177 11.5865 62.7177 12.6103V12.6103ZM25.0985 28.8235H17.2612V53.5294H25.0985V28.8235ZM25.8039 20.3309C25.808 19.7469 25.6953 19.1678 25.4723 18.6267C25.2492 18.0856 24.9201 17.5931 24.5039 17.1773C24.0876 16.7614 23.5922 16.4305 23.0461 16.2032C22.5 15.976 21.9137 15.857 21.3209 15.8529H21.1798C19.9742 15.8529 18.818 16.3247 17.9656 17.1645C17.1131 18.0043 16.6342 19.1433 16.6342 20.3309C16.6342 21.5185 17.1131 22.6575 17.9656 23.4973C18.818 24.337 19.9742 24.8088 21.1798 24.8088V24.8088C21.7727 24.8232 22.3626 24.7223 22.9159 24.512C23.4692 24.3017 23.975 23.9861 24.4044 23.5831C24.8339 23.1802 25.1785 22.6978 25.4186 22.1637C25.6587 21.6295 25.7896 21.0539 25.8039 20.4699V20.3309ZM54.8804 38.5206C54.8804 31.0934 50.0839 28.2059 45.3188 28.2059C43.7586 28.1289 42.2052 28.4563 40.8135 29.1553C39.4219 29.8543 38.2406 30.9006 37.3874 32.1897H37.168V28.8235H29.8009V53.5294H37.6382V40.389C37.5249 39.0432 37.9553 37.7077 38.8358 36.6726C39.7162 35.6376 40.9757 34.9866 42.3406 34.861H42.6385C45.1307 34.861 46.9803 36.4051 46.9803 40.2963V53.5294H54.8177L54.8804 38.5206Z" fill="#B377FF"/>
</svg>
