<svg width="72" height="70" viewBox="0 0 72 70" fill="none" xmlns="http://www.w3.org/2000/svg">
<path d="M59.9115 23.0998C59.9475 23.6141 59.9475 24.1283 59.9475 24.6473C59.9475 40.4612 47.7268 58.6994 25.3806 58.6994V58.6899C18.7794 58.6994 12.3154 56.8367 6.7583 53.3246C7.71816 53.4384 8.68283 53.4952 9.64991 53.4976C15.1204 53.5023 20.4345 51.6942 24.7382 48.3645C19.5396 48.2674 14.9809 44.9283 13.3883 40.0536C15.2094 40.3996 17.0858 40.3285 18.8732 39.8474C13.2055 38.7193 9.12788 33.8138 9.12788 28.1167C9.12788 28.0646 9.12788 28.0148 9.12788 27.9651C10.8167 28.8917 12.7075 29.4059 14.6417 29.4628C9.30349 25.9483 7.65802 18.9526 10.8816 13.483C17.0497 20.9598 26.1504 25.5052 35.9198 25.9863C34.9407 21.8296 36.2782 17.4738 39.4344 14.5518C44.3276 10.0207 52.0233 10.253 56.6229 15.0708C59.3437 14.5424 61.9515 13.5589 64.3379 12.1654C63.431 14.9357 61.5329 17.289 58.9973 18.7843C61.4054 18.5047 63.7581 17.8696 65.9737 16.9003C64.3427 19.3081 62.2883 21.4054 59.9115 23.0998Z" fill="#B377FF"/>
</svg>
